# xmcd
#
# Track frame offsets: 
#        150
#        18460
#        32687
#        46875
#        64450
#        78050
#
# Disc length: 1247 seconds
#
# Revision: 4
# Processed by: cddbd v1.5.2PL0 Copyright (c) Steve Scherf et al.
# Submitted via: ExactAudioCopy v0.90b4
#
DISCID=4204dd06
DTITLE=Various Artist - Kellogg's Country Music: Driving 'Em Crazy Volume 3
DYEAR=2001
DGENRE=Country
TTITLE0=Jo Dee Messina - Closer
TTITLE1=SHeDaisy - Before Me And You
TTITLE2=Terri Clark - A Little Gasoline
TTITLE3=Jamie O'Neal - There Is No Arizona
TTITLE4=Meredith Edwards - A Rose Is A Rose
TTITLE5=Kortney Kayle - Don't Let Me Down
EXTD=
EXTT0=
EXTT1=
EXTT2=
EXTT3=
EXTT4=
EXTT5=
PLAYORDER=
